<?xml version="1.0" standalone="no"?><svg xmlns="http://www.w3.org/2000/svg" viewBox="0 0 1440 320"><path fill="#ffc4b4" fill-opacity="1" d="M0,160L24,149.3C48,139,96,117,144,117.3C192,117,240,139,288,160C336,181,384,203,432,218.7C480,235,528,245,576,229.3C624,213,672,171,720,170.7C768,171,816,213,864,229.3C912,245,960,235,1008,208C1056,181,1104,139,1152,101.3C1200,64,1248,32,1296,32C1344,32,1392,64,1416,80L1440,96L1440,320L1416,320C1392,320,1344,320,1296,320C1248,320,1200,320,1152,320C1104,320,1056,320,1008,320C960,320,912,320,864,320C816,320,768,320,720,320C672,320,624,320,576,320C528,320,480,320,432,320C384,320,336,320,288,320C240,320,192,320,144,320C96,320,48,320,24,320L0,320Z"></path></svg>